# xmcd CD database file
#
# Track frame offsets:
#	150
#	11665
#	25180
#
# Disc length: 485 seconds
#
# Revision: 0
# Processed by: cddbd v1.5.1PL0 Copyright (c) Steve Scherf et al.
# Submitted via: CDex 1.51
#
DISCID=1801e303
DTITLE=W - 恋のフーガ
DYEAR=2005
DGENRE=Hello!Project
TTITLE0=恋のフーガ
TTITLE1=ふりむかないで
TTITLE2=恋のフーガ (Instrumental)
EXTD=YEAR: 2005
EXTT0=
EXTT1=
EXTT2=
PLAYORDER=
